<svg xmlns="http://www.w3.org/2000/svg" viewBox="0 0 263 80.76"><defs><style>.cls-1{fill:#fff;}.cls-2{fill:#89c765;}</style></defs><title>Asset 3</title><g id="Layer_2" data-name="Layer 2"><g id="Layer_1-2" data-name="Layer 1"><path class="cls-1" d="M199,80.76h-2.9a4,4,0,0,1-4-3.94V63.15a1.29,1.29,0,0,1,1.3-1.28h5.52a5.23,5.23,0,0,1,5.29,4.72,5.05,5.05,0,0,1-1.49,4A5.72,5.72,0,0,1,199,80.76Zm-4.12-8.7v4.76A1.22,1.22,0,0,0,196.07,78h3.08a3,3,0,1,0,0-6Zm0-2.72h4.27a2.38,2.38,0,0,0,0-4.75h-4.27Z"/><path class="cls-1" d="M160.67,80.76h-4.18a6.89,6.89,0,0,1-6.89-6.89V68.75a6.89,6.89,0,0,1,6.89-6.88h4.18v2.72h-4.18a4.16,4.16,0,0,0-4.14,4.16v5.12A4.16,4.16,0,0,0,156.49,78h4.18Z"/><path class="cls-1" d="M182.38,80.69a6.23,6.23,0,0,1-6.23-6.22V61.87h2.75v12.6a3.48,3.48,0,1,0,6.95,0V61.87h2.75v12.6A6.23,6.23,0,0,1,182.38,80.69Z"/><path class="cls-1" d="M174.85,80.76h-6.77a4,4,0,0,1-4-3.94V61.87h2.73V76.82A1.22,1.22,0,0,0,168.08,78h6.77Z"/><path class="cls-1" d="M65.47,80.76H58.21V78h7.26a2,2,0,0,0,1-3.82l-6-3.42a4.78,4.78,0,0,1,2.38-8.92h6.28v2.72H62.91a2,2,0,0,0-1,3.82l6,3.42A4.82,4.82,0,0,1,70.24,76,4.77,4.77,0,0,1,65.47,80.76Z"/><path class="cls-1" d="M138.75,80.76h-7.26V78h7.26a2,2,0,0,0,1-3.82l-5.94-3.42a4.78,4.78,0,0,1,2.37-8.92h6.28v2.72H136.2a2,2,0,0,0-1,3.82l5.94,3.42a4.78,4.78,0,0,1-2.38,8.93Z"/><path class="cls-1" d="M92.52,80.76a6.22,6.22,0,0,1-6.21-6.21V68.07a6.22,6.22,0,0,1,12.43,0v6.48A6.21,6.21,0,0,1,92.52,80.76Zm0-16.17A3.5,3.5,0,0,0,89,68.07v6.48a3.49,3.49,0,0,0,7,0V68.07A3.49,3.49,0,0,0,92.52,64.59Z"/><path class="cls-1" d="M74.83,80.76H72.09V63.15a1.29,1.29,0,0,1,1.3-1.28h4.84a5.9,5.9,0,0,1,6,5.34,5.77,5.77,0,0,1-5.75,6.16h-3.6Zm0-10.14h3.6a3,3,0,1,0,0-6h-3.6Z"/><path class="cls-1" d="M110.61,72.83a1.12,1.12,0,0,1-.13-.16,5.78,5.78,0,0,0,3-5.45,5.9,5.9,0,0,0-5.93-5.35h-4.85a1.3,1.3,0,0,0-1.31,1.28V80.76h2.74V73.37h2.32a2.23,2.23,0,0,1,1.87,1l4.3,6.39h3.31Zm-5.71-2.21h-.76v-6h3.6a3,3,0,1,1,0,6H104.9Z"/><polygon class="cls-1" points="129.53 61.87 115.4 61.87 115.4 64.59 121.1 64.59 121.1 80.76 123.84 80.76 123.84 64.59 129.53 64.59 129.53 61.87"/><path class="cls-2" d="M124.09,20.74a4.08,4.08,0,0,0-4.88,4.88,4.06,4.06,0,1,0,4.88-4.88Z"/><path class="cls-2" d="M29.11,0H17.37V7.65H27.1V35.11a10,10,0,0,1-9.37,10A9.72,9.72,0,0,1,7.65,35.44H0A17.37,17.37,0,0,0,17.36,52.81H18A17.7,17.7,0,0,0,34.75,35.11V5.64A5.65,5.65,0,0,0,29.11,0Z"/><path class="cls-2" d="M41.26,3.61V41.76A11,11,0,0,0,52.31,52.81H73.08V45.15H52.31a3.4,3.4,0,0,1-3.41-3.39V28.52H71.27V20.87H48.9V7.65H73.08V0H44.87A3.61,3.61,0,0,0,41.26,3.61Z"/><path class="cls-2" d="M256.3,27.87l-16.63-9.55a5.71,5.71,0,0,1,2.85-10.67h17.56V0H242.52a13.37,13.37,0,0,0-6.66,25l16.62,9.55a5.7,5.7,0,0,1-2.84,10.65H229.37v7.66h20.27a13.36,13.36,0,0,0,6.66-24.94Z"/><path class="cls-2" d="M106.73,35.44a9.73,9.73,0,0,1-19.46,0V0H79.63V35.44a17.37,17.37,0,0,0,34.74,0V0h-7.64Z"/><rect class="cls-2" x="175.74" width="7.65" height="52.81"/><path class="cls-2" d="M212.44,0H194.17a3.62,3.62,0,0,0-3.62,3.61V49.19a3.63,3.63,0,0,0,3.62,3.62h18.27A12.86,12.86,0,0,0,225.3,40V12.85A12.86,12.86,0,0,0,212.44,0Zm5.21,40a5.2,5.2,0,0,1-5.21,5.2H198.2V7.65h14.24a5.22,5.22,0,0,1,5.21,5.2Z"/><path class="cls-2" d="M152,24.49a14.35,14.35,0,0,0,2.29-2.67L169,0h-9.21L147.93,17.56a7,7,0,0,1-5.81,3.09h-.81V0h-7.66V52.81h7.66V28.3h.81a7,7,0,0,1,5.81,3.11l14.4,21.4h9.21L154.28,27.13A14.16,14.16,0,0,0,152,24.49Z"/></g></g></svg>