<svg xmlns="http://www.w3.org/2000/svg" xmlns:xlink="http://www.w3.org/1999/xlink" viewBox="0 0 516.37 426.37"><defs><style>.cls-1{fill:none;}.cls-2,.cls-7{fill:#3e3a39;}.cls-3{clip-path:url(#clip-path);}.cls-4{fill:#89c765;}.cls-5{fill:#fff;}.cls-6{opacity:0.2;}.cls-7{opacity:0.1;}.cls-8{fill:#6e9c44;}</style><clipPath id="clip-path"><path class="cls-1" d="M246.8,7.59,154,32.54A45.27,45.27,0,0,0,120.74,81.2l25.19,228.52a36.56,36.56,0,0,0,20.42,28.91l92.2,44.58,92.19-44.58a36.56,36.56,0,0,0,20.42-28.91L396.35,81.2a45.25,45.25,0,0,0-33.23-48.66L270.29,7.59A45.2,45.2,0,0,0,246.8,7.59Z"/></clipPath></defs><title>Asset 2</title><g id="Layer_2" data-name="Layer 2"><g id="Layer_1-2" data-name="Layer 1"><path class="cls-2" d="M246.8,7.59,154,32.54A45.27,45.27,0,0,0,120.74,81.2l25.19,228.52a36.56,36.56,0,0,0,20.42,28.91l92.2,44.58,92.19-44.58a36.56,36.56,0,0,0,20.42-28.91L396.35,81.2a45.25,45.25,0,0,0-33.23-48.66L270.29,7.59A45.2,45.2,0,0,0,246.8,7.59Z"/><g class="cls-3"><path class="cls-4" d="M354,330.89a95.48,95.48,0,1,1-95.47-95.48A95.47,95.47,0,0,1,354,330.89Z"/><path class="cls-5" d="M175.16,350.26a85.61,85.61,0,1,1,102.76,64A85.61,85.61,0,0,1,175.16,350.26Z"/><polygon class="cls-4" points="273.65 320.62 237.19 343.26 236.79 342.61 273.25 319.96 273.65 320.62 273.65 320.62"/><path class="cls-4" d="M275.62,287.66h0l-.47.61a137.5,137.5,0,0,0-11.53-7.82h0a94.19,94.19,0,0,0-24.44-10.29l-.21-.94h.36c18,3.9,36.27,18.42,36.29,18.44Z"/><path class="cls-4" d="M211.81,285.6a104.14,104.14,0,0,0-3.42,30.4h0a79.34,79.34,0,0,0,1.31,12.81h0L209,329a102.4,102.4,0,0,1,2.12-43.59h0l.74.21Z"/><path class="cls-4" d="M304.16,338.29c4,17.4-.94,37.43-.94,37.46h0l-.74-.19a97,97,0,0,0,2-12.11h0c.74-7.13,1-16.42-1-25h0c-.29-1.23-.62-2.44-1-3.62h0l.73-.24c.39,1.21.73,2.44,1,3.68Z"/><path class="cls-4" d="M259.81,388.48a109.48,109.48,0,0,0,13.45,4.72h0l-.2.75s-23.94-6.26-36.5-19.22h0l.55-.54c6.15,6.37,15.2,11.14,22.7,14.29Z"/><path class="cls-4" d="M305.09,262.77a44.21,44.21,0,0,1-1.11,22.3h0l-.72-.26a41.85,41.85,0,0,0,1.53-6.68h0a41.35,41.35,0,0,0-.44-15.18h0c-.22-.92-.47-1.84-.77-2.76h0l.72-.24a27.71,27.71,0,0,1,.79,2.82Z"/><path class="cls-4" d="M188.2,347.55a25.44,25.44,0,0,0,5.94,1.82h0l-.1.76s-9.88-1.3-19.3-11h0l.56-.54a39.25,39.25,0,0,0,12.9,9Z"/><path class="cls-4" d="M209.44,377.74A64.76,64.76,0,0,0,211.06,397h0c.28,1.19.6,2.42,1,3.67h0l-.37.11c-.37-1.26-.69-2.49-1-3.7h0a64.58,64.58,0,0,1-1.63-19.39h0l.38,0Z"/><path class="cls-4" d="M341.56,324l-.56.53c-1.72-1.85-6.62-4.44-11-6.51h0c-4.43-2.08-8.39-3.68-8.4-3.68h0l.29-.71s15.89,6.36,19.71,10.37Z"/><path class="cls-4" d="M342.65,348c-7.88,25.51-24.13,35.41-24.16,35.42h0l-.2-.32a45.33,45.33,0,0,0,9-8.08h0a72.58,72.58,0,0,0,14.94-27.13h0l.37.11Z"/><path class="cls-5" d="M272.49,409.34s-19.94,6.21-40.23,3.05c0,0,23.21,4.45,40.46-2.05Z"/><path class="cls-4" d="M197.11,280.3s-6.87,2.05-13.1,10.25c0,0,3.41-6.36,13.07-11.82Z"/><path class="cls-4" d="M240.14,255.41s7.23-5,21.43-9.12c0,0-13.94,2.65-22.17,7.91Z"/><path class="cls-4" d="M321.19,381.76C315,395.6,299,406.67,299,406.67,283.37,412.48,271,411,271,411l.49-18.22c14.09-4.85,32.06-19,32.06-19Z"/><path class="cls-4" d="M304.11,338.75s-25-15.17-32.08-17.21c0,0,2-26.44,1.14-34.64,0,0,17.48-7.21,31.7-4.74a80.47,80.47,0,0,1,18.87,32.61S313.15,332.45,304.11,338.75Z"/><path class="cls-4" d="M241.82,270.56s-21.44,7.09-31.39,19.63c0,0-7.82-6.58-15.34-9.56,0,0,9.27-18.17,18.95-23.22a60.1,60.1,0,0,1,29.44-4.55A56.19,56.19,0,0,0,241.82,270.56Z"/><path class="cls-4" d="M239.38,376.36s-.46-24.56.33-34.71c0,0-21.09-10.59-30.91-16.7,0,0-16.26,15.85-17,24.14,0,0,3.48,18.35,17.33,31.67C209.17,380.76,223.3,385.08,239.38,376.36Z"/><path class="cls-4" d="M237.72,375.32s-.43-23.33.32-33c0,0-20-10-29.36-15.86,0,0-15.45,15.06-16.12,22.94,0,0,3.31,17.43,16.47,30.08C209,379.5,222.45,383.61,237.72,375.32Z"/><path class="cls-4" d="M341.81,352a77.6,77.6,0,0,0,.39-40.55c0-.14-.06-.28-.1-.42-.26,4-.9,9.49-2.45,12.38C339.65,323.41,343.5,340,341.81,352Z"/><path class="cls-4" d="M304.5,263.61A48.59,48.59,0,0,1,316,267.05a86.13,86.13,0,0,0-47.52-21.49C278,247.71,294.76,252.85,304.5,263.61Z"/><path class="cls-4" d="M173.71,317.39a85.72,85.72,0,0,0,.81,31.27,20.72,20.72,0,0,1,1.78-8.82A143.34,143.34,0,0,1,173.71,317.39Z"/><path class="cls-4" d="M211.28,398.9c-6.19-.87-13.68-7.65-18.81-13.12a86.24,86.24,0,0,0,42.85,27.8C223.46,408.7,211.28,398.9,211.28,398.9Z"/><g class="cls-6"><path class="cls-4" d="M267.74,322.48l-25.37,15.71a7.39,7.39,0,0,1-6.65.23l-22.54-11.91c-1.87-1-1.82-1.1.11-.23l22,9.82a8.88,8.88,0,0,0,6.88-.24l25.46-13.59C269.49,321.28,269.54,321.37,267.74,322.48Z"/><path class="cls-4" d="M305.18,339.1s3.44,22.42-1.23,34.53l16.62,7.16L305.78,373A82.93,82.93,0,0,0,305.18,339.1Z"/><path class="cls-4" d="M321.47,382.09s-4,11.23-18.12,21.72C303.35,403.81,316.61,396.47,321.47,382.09Z"/><path class="cls-4" d="M274.09,285.76s-16.38-12.92-31.76-16.43c0,0-.82-5.78,1.38-15.48,0,0-1.16,9.39-.32,14.71C243.39,268.56,258.61,271.65,274.09,285.76Z"/><path class="cls-4" d="M211,290.32a113,113,0,0,0-1.36,34s-.27-21.49,1.84-31a10.58,10.58,0,0,1,2.28-4.17c3.46-3.38,12.71-11.36,27.69-17.65A69.1,69.1,0,0,0,211,290.32Z"/><path class="cls-4" d="M207.89,325.29s-14.55,13.61-16.33,22.88C191.56,348.17,192.31,337,207.89,325.29Z"/></g><path class="cls-7" d="M341.93,311.51a85.53,85.53,0,0,0-57.29-62.15,96.34,96.34,0,0,1-76,151.06,85.59,85.59,0,0,0,133.28-88.91Z"/></g><path class="cls-4" d="M258.55,389.92l-94.83-45.85a42.35,42.35,0,0,1-23.79-33.68L114.74,81.86A51,51,0,0,1,152.4,26.71L245.23,1.76a51.18,51.18,0,0,1,26.63,0l92.83,25a51,51,0,0,1,37.67,55.15L377.17,310.39a42.38,42.38,0,0,1-23.8,33.68Zm0-377.84a39.41,39.41,0,0,0-10.18,1.34h0l-92.83,25a39,39,0,0,0-28.79,42.15l25.19,228.53a30.33,30.33,0,0,0,17,24.13l89.57,43.31,89.56-43.31a30.34,30.34,0,0,0,17.05-24.13L390.35,80.53a39,39,0,0,0-28.8-42.15l-92.83-25A39.34,39.34,0,0,0,258.55,12.08Z"/><path class="cls-4" d="M123.48,239.41A1009.1,1009.1,0,0,0,22.34,258.3q14.76-28.16,31.57-55.87Q27.86,183.17,0,165.23a1104.41,1104.41,0,0,1,110.71-20.68Q117.1,192,123.48,239.41Z"/><path class="cls-8" d="M123.48,239.41Q96.61,220.3,67.76,202.68q-8.63-47.09-17.27-94.15,31.09,17.19,60.22,36Q117.1,192,123.48,239.41Z"/><path class="cls-4" d="M392.89,239.41A1008.38,1008.38,0,0,1,494,258.3q-14.75-28.16-31.57-55.87,26.07-19.26,53.92-37.2a1104.08,1104.08,0,0,0-110.72-20.68Q399.28,192,392.89,239.41Z"/><path class="cls-8" d="M392.89,239.41q26.87-19.11,55.71-36.73l17.28-94.15q-31.1,17.19-60.23,36Q399.28,192,392.89,239.41Z"/><path class="cls-4" d="M448.51,202.66a1055.3,1055.3,0,0,0-380.75,0q-8.63-47.09-17.27-94.15a1151.17,1151.17,0,0,1,415.28,0Q457.13,155.58,448.51,202.66Z"/><path class="cls-5" d="M248.3,129.21c-3.85,0-6.93,2.9-6.87,6.36s3.19,6.24,7,6.2,6.87-2.86,6.86-6.32S252.14,129.17,248.3,129.21Z"/><path class="cls-5" d="M130.87,119.82c-.5-4.48-5.05-7.66-10.13-7q-8.73,1.06-17.44,2.27.83,5.94,1.64,11.9,6.48-.89,13-1.71l3.93,31.22a11,11,0,0,1-9.23,11.9l-.4.06a11.65,11.65,0,0,1-8-1.77,9.8,9.8,0,0,1-4.41-6.79l-.21-1.42q-6.49,1-13,2c.07.47.15.94.22,1.41a21.58,21.58,0,0,0,9.74,14.68,25.21,25.21,0,0,0,17.26,3.81h0l.86-.13c12.41-2.11,21.49-13.31,20.17-25.29Q132.86,137.36,130.87,119.82Z"/><path class="cls-5" d="M157.12,163.26a2.76,2.76,0,0,1-3.1-2.36l-1.38-14.36q14.63-1.41,29.28-2.44l-.84-12q-14.81,1-29.59,2.46-.63-6.47-1.25-12.93,16.17-1.56,32.36-2.65-.4-6-.8-12-19.92,1.35-39.78,3.38c-3.58.37-6.22,3.26-5.87,6.41q2.46,22.71,4.93,45.43c.9,8,8.59,13.8,17.16,13q13.23-1.24,26.48-2.16l1.52-.1-.81-12Q171.27,161.94,157.12,163.26Z"/><path class="cls-5" d="M408,126.49q12.49,1.68,25,3.65.93-5.94,1.87-11.88-12.6-2-25.24-3.68c-10.84-1.46-20.56,5.3-21.65,14.85-.71,6.18,2.31,12.35,7.82,16.17q10.17,7,20.1,14.27a5.35,5.35,0,0,1,2.24,5.08,5.68,5.68,0,0,1-6.59,4.51q-13.76-2-27.55-3.59-.69,6-1.4,11.94,13.65,1.59,27.25,3.54c10.14,1.45,19.64-4.91,21.2-14.4a17,17,0,0,0-7.12-16.41q-10-7.31-20.23-14.43a5.37,5.37,0,0,1-2.39-5.05C401.7,128.11,404.71,126,408,126.49Z"/><path class="cls-5" d="M224.16,105q.66,21.93,1.31,43.85c.16,5.64-4.64,10.36-10.71,10.6s-11.23-4.08-11.53-9.7q-1.09-21.91-2.2-43.82-6.79.34-13.6.77,1.37,21.88,2.74,43.78c.81,12.24,12.05,21.5,25.07,21s23.49-10.66,23.32-22.92q-.41-21.93-.79-43.87C233.23,104.71,228.7,104.81,224.16,105Z"/><path class="cls-5" d="M314.28,172q6.41.33,12.8.75l4.26-66q-6.79-.43-13.59-.8Q316,139,314.28,172Z"/><path class="cls-5" d="M369.05,109.86q-12.36-1.22-24.72-2.15c-3.59-.27-6.69,2.1-6.91,5.27q-1.92,27.22-3.83,54.46a6,6,0,0,0,5.72,6.19q11.65.88,23.29,2c9.83,1,18.7-5.6,19.79-14.82q1.86-16.12,3.71-32.24C387.19,119.39,379.55,110.89,369.05,109.86Zm-18.63,10.39q8.73.72,17.45,1.57c3,.29,5.16,2.69,4.88,5.33q-1.67,16.14-3.32,32.28a5,5,0,0,1-5.66,4.27q-8.4-.82-16.81-1.52Q348.7,141.21,350.42,120.25Z"/><path class="cls-5" d="M288.66,135.66l.06,0-.06-.05a19.76,19.76,0,0,0,2.13-2.27q10.95-13.87,22.42-27.52-8.19-.39-16.39-.67-8.61,10.55-16.91,21.21a8,8,0,0,1-6,3q.17-12.36.35-24.72-6.81-.09-13.61-.11l-.15,66.11q6.42,0,12.82.11l.42-29.32a7.68,7.68,0,0,1,5.77,3.15q9.4,13.32,18.33,26.79c5.15.2,10.29.42,15.44.69q-11-17.07-22.67-33.92A19.55,19.55,0,0,0,288.66,135.66Z"/><polygon class="cls-4" points="258.13 24.84 264.33 43.91 284.38 43.91 268.16 55.69 274.36 74.76 258.13 62.97 241.92 74.76 248.11 55.69 231.89 43.91 251.94 43.91 258.13 24.84"/><path class="cls-4" d="M232.49,221.82h-3.14a4.33,4.33,0,0,1-4.33-4.33V202.57a1.43,1.43,0,0,1,1.42-1.42h6a5.77,5.77,0,0,1,5.82,5.72,5.56,5.56,0,0,1-1.64,3.82,6.22,6.22,0,0,1,2.31,5.58A6.41,6.41,0,0,1,232.49,221.82ZM228,212.31v5.18a1.32,1.32,0,0,0,1.33,1.33h3.37a3.26,3.26,0,0,0,0-6.51H228Zm0-8.16v5.17h4.71a2.59,2.59,0,0,0,0-5.17Z"/><path class="cls-4" d="M269.22,221.82h-7.4a4.33,4.33,0,0,1-4.32-4.33V201.15h3v16.34a1.33,1.33,0,0,0,1.33,1.33h7.4Z"/><path class="cls-4" d="M282.5,221.82h-7.4a4.33,4.33,0,0,1-4.32-4.33V201.15h3v16.34a1.33,1.33,0,0,0,1.33,1.33h7.4Z"/><path class="cls-4" d="M183.13,221.82a6.81,6.81,0,0,1-6.8-6.8V208a6.8,6.8,0,0,1,13.6,0V215A6.81,6.81,0,0,1,183.13,221.82Zm0-17.67a3.8,3.8,0,0,0-3.8,3.8V215a3.81,3.81,0,0,0,7.61,0V208A3.81,3.81,0,0,0,183.13,204.15Z"/><path class="cls-4" d="M199.42,221.82a6.81,6.81,0,0,1-6.8-6.8V208a6.8,6.8,0,0,1,13.6,0V215A6.81,6.81,0,0,1,199.42,221.82Zm0-17.67a3.81,3.81,0,0,0-3.81,3.8V215a3.81,3.81,0,0,0,7.61,0V208A3.8,3.8,0,0,0,199.42,204.15Z"/><polygon class="cls-4" points="222.96 201.15 207.52 201.15 207.52 204.15 213.74 204.15 213.74 221.82 216.74 221.82 216.74 204.15 222.96 204.15 222.96 201.15"/><path class="cls-4" d="M174.68,204.15v-3h-11a1.42,1.42,0,0,0-1.41,1.42v19.25h3v-9.51h8.19v-3h-8.19v-5.17Z"/><path class="cls-4" d="M252,221.82h3.08l-4.61-18.49a2.83,2.83,0,0,0-2.78-2.18h0a2.86,2.86,0,0,0-2.78,2.18l-4.62,18.49h3.09l1.56-6.25h5.5Zm-6.32-9.24,1.83-7.34a.18.18,0,0,1,.35,0l1.83,7.34Z"/><path class="cls-4" d="M319.55,204.15v-3H307.09v16.34a4.33,4.33,0,0,0,4.33,4.33h8.13v-3h-8.13a1.33,1.33,0,0,1-1.33-1.34v-5.18h8.75v-3h-8.75v-5.17Z"/><path class="cls-4" d="M353.44,221.82h-3.28V207.31l-3.22,5.9a2,2,0,0,1-1.72.93h0a2,2,0,0,1-1.71-.93l-3.22-5.9v14.51H337V203.21a2.05,2.05,0,0,1,3.77-1.13l4.44,7.77,4.45-7.77a2.05,2.05,0,0,1,3.77,1.13Z"/><polygon class="cls-4" points="304.57 201.15 289.13 201.15 289.13 204.15 295.36 204.15 295.36 221.82 298.35 221.82 298.35 204.15 304.57 204.15 304.57 201.15"/><path class="cls-4" d="M332.5,221.82h3.09L331,203.33a2.83,2.83,0,0,0-2.78-2.18h0a2.87,2.87,0,0,0-2.78,2.18l-4.61,18.49h3.08l1.56-6.25h5.5Zm-6.31-9.24,1.83-7.34a.18.18,0,0,1,.35,0l1.83,7.34Z"/></g></g></svg>